<svg version="1.1" id="Layer_1" xmlns="http://www.w3.org/2000/svg" xmlns:xlink="http://www.w3.org/1999/xlink" x="0px" y="0px"
	 width="100%" viewBox="0 0 192 192" enable-background="new 0 0 192 192" xml:space="preserve">
<path fill="#000000" opacity="1.000000" stroke="none" 
	d="
M105.000000,193.000000 
	C70.000000,193.000000 35.500004,193.000000 1.000005,193.000000 
	C1.000003,129.000000 1.000003,65.000015 1.000002,1.000013 
	C64.999992,1.000009 128.999985,1.000009 192.999969,1.000004 
	C192.999985,64.999985 192.999985,128.999969 193.000000,192.999969 
	C163.833328,193.000000 134.666672,193.000000 105.000000,193.000000 
M186.002304,127.500000 
	C186.001587,95.350075 186.002182,63.200153 185.999344,31.050228 
	C185.998520,21.777922 178.127274,14.007635 168.646210,14.004686 
	C120.837692,13.989817 73.029167,13.988571 25.220650,14.005703 
	C16.224207,14.008927 8.001060,22.214476 8.000187,31.104580 
	C7.995880,74.915184 8.161422,118.726913 7.858891,162.535431 
	C7.798896,171.223175 16.754498,180.261078 25.556498,180.188461 
	C73.528351,179.792770 121.505180,180.006927 169.480255,179.968262 
	C171.066315,179.966980 172.711517,179.695389 174.227539,179.223434 
	C180.638550,177.227600 185.998627,169.978760 186.000076,163.481857 
	C186.002655,151.821243 186.001755,140.160614 186.002304,127.500000 
z"/>
<path fill="#E8EBF3" opacity="1.000000" stroke="none" 
	d="
M186.002304,128.000000 
	C186.001755,140.160614 186.002655,151.821243 186.000076,163.481857 
	C185.998627,169.978760 180.638550,177.227600 174.227539,179.223434 
	C172.711517,179.695389 171.066315,179.966980 169.480255,179.968262 
	C121.505180,180.006927 73.528351,179.792770 25.556498,180.188461 
	C16.754498,180.261078 7.798896,171.223175 7.858891,162.535431 
	C8.161422,118.726913 7.995880,74.915184 8.000187,31.104580 
	C8.001060,22.214476 16.224207,14.008927 25.220650,14.005703 
	C73.029167,13.988571 120.837692,13.989817 168.646210,14.004686 
	C178.127274,14.007635 185.998520,21.777922 185.999344,31.050228 
	C186.002182,63.200153 186.001587,95.350075 186.002304,128.000000 
M56.047546,116.500397 
	C56.051743,110.672958 55.897800,104.840164 56.095181,99.019279 
	C56.437866,88.913193 63.695629,81.674110 73.071365,81.827652 
	C82.926414,81.989037 87.806625,87.647346 87.890388,99.084991 
	C87.934288,105.078644 87.899330,111.072868 87.899567,117.066833 
	C87.899841,123.835007 87.899635,130.603180 87.899635,137.508026 
	C95.431908,137.508026 102.294838,137.508026 109.617737,137.508026 
	C109.617737,123.659889 109.689331,110.204506 109.568710,96.750839 
	C109.537529,93.273804 109.290421,89.704620 108.445793,86.353348 
	C107.441490,82.368507 106.294075,78.192719 104.149200,74.762062 
	C95.353401,60.693466 72.220299,57.874893 59.117462,68.976746 
	C57.951675,69.964508 56.776752,70.941475 55.299599,72.180542 
	C54.055656,64.111237 54.055656,64.110870 46.287289,64.110474 
	C43.789806,64.110344 41.286533,64.219650 38.796410,64.084908 
	C36.121586,63.940159 34.835552,64.812950 34.844440,67.725838 
	C34.912476,90.036453 34.847366,112.347626 35.003727,134.657364 
	C35.011292,135.736694 36.663807,137.686630 37.622753,137.733032 
	C43.554306,138.019867 49.506626,137.877197 56.047554,137.877197 
	C56.047554,130.719772 56.047554,124.109909 56.047546,116.500397 
M122.684464,57.314293 
	C122.190742,60.461720 124.587212,65.016487 118.029060,64.875313 
	C109.373108,64.688988 109.366760,64.983772 109.365852,73.723778 
	C109.365822,74.056915 109.365761,74.390060 109.365807,74.723198 
	C109.366966,82.576294 109.376312,82.836617 117.120811,82.558426 
	C121.540108,82.399673 122.890373,83.787788 122.782097,88.192497 
	C122.548950,97.676880 122.458168,107.198700 123.036217,116.660774 
	C123.811607,129.353287 131.153030,137.544922 142.688858,138.861191 
	C147.431915,139.402374 152.381317,139.256973 157.110214,138.562119 
	C166.386169,137.199097 166.350266,136.948883 163.961227,128.109894 
	C163.613602,126.823761 163.092300,125.561188 162.928406,124.252991 
	C162.348206,119.622009 160.322601,118.413681 155.533356,119.561272 
	C148.119720,121.337708 144.114319,117.724281 144.005707,110.044983 
	C143.897339,102.384216 144.127579,94.716316 143.902405,87.060570 
	C143.795166,83.414513 145.286774,82.419136 148.626694,82.618042 
	C152.112152,82.825600 155.663223,82.974022 159.096390,82.500870 
	C160.459137,82.313065 162.469940,80.505440 162.644699,79.224976 
	C163.135788,75.626709 162.747574,71.916733 162.857895,68.255379 
	C162.935837,65.668304 161.828049,64.673370 159.286423,64.759880 
	C155.959000,64.873138 152.600098,64.525635 149.299255,64.841484 
	C144.976837,65.255089 143.800720,63.397774 144.028488,59.378517 
	C144.306747,54.468643 144.094727,49.530983 144.094727,44.144836 
	C139.611221,44.562172 135.993454,44.836189 132.391174,45.246330 
	C122.683266,46.351643 122.685890,46.374680 122.684464,57.314293 
z"/>
<path fill="#102D4E" opacity="1.000000" stroke="none" 
	d="
M56.047550,117.000221 
	C56.047554,124.109909 56.047554,130.719772 56.047554,137.877197 
	C49.506626,137.877197 43.554306,138.019867 37.622753,137.733032 
	C36.663807,137.686630 35.011292,135.736694 35.003727,134.657364 
	C34.847366,112.347626 34.912476,90.036453 34.844440,67.725838 
	C34.835552,64.812950 36.121586,63.940159 38.796410,64.084908 
	C41.286533,64.219650 43.789806,64.110344 46.287289,64.110474 
	C54.055656,64.110870 54.055656,64.111237 55.299599,72.180542 
	C56.776752,70.941475 57.951675,69.964508 59.117462,68.976746 
	C72.220299,57.874893 95.353401,60.693466 104.149200,74.762062 
	C106.294075,78.192719 107.441490,82.368507 108.445793,86.353348 
	C109.290421,89.704620 109.537529,93.273804 109.568710,96.750839 
	C109.689331,110.204506 109.617737,123.659889 109.617737,137.508026 
	C102.294838,137.508026 95.431908,137.508026 87.899635,137.508026 
	C87.899635,130.603180 87.899841,123.835007 87.899567,117.066833 
	C87.899330,111.072868 87.934288,105.078644 87.890388,99.084991 
	C87.806625,87.647346 82.926414,81.989037 73.071365,81.827652 
	C63.695629,81.674110 56.437866,88.913193 56.095181,99.019279 
	C55.897800,104.840164 56.051743,110.672958 56.047550,117.000221 
z"/>
<path fill="#385CFF" opacity="1.000000" stroke="none" 
	d="
M122.684265,56.840508 
	C122.685890,46.374680 122.683266,46.351643 132.391174,45.246330 
	C135.993454,44.836189 139.611221,44.562172 144.094727,44.144836 
	C144.094727,49.530983 144.306747,54.468643 144.028488,59.378517 
	C143.800720,63.397774 144.976837,65.255089 149.299255,64.841484 
	C152.600098,64.525635 155.959000,64.873138 159.286423,64.759880 
	C161.828049,64.673370 162.935837,65.668304 162.857895,68.255379 
	C162.747574,71.916733 163.135788,75.626709 162.644699,79.224976 
	C162.469940,80.505440 160.459137,82.313065 159.096390,82.500870 
	C155.663223,82.974022 152.112152,82.825600 148.626694,82.618042 
	C145.286774,82.419136 143.795166,83.414513 143.902405,87.060570 
	C144.127579,94.716316 143.897339,102.384216 144.005707,110.044983 
	C144.114319,117.724281 148.119720,121.337708 155.533356,119.561272 
	C160.322601,118.413681 162.348206,119.622009 162.928406,124.252991 
	C163.092300,125.561188 163.613602,126.823761 163.961227,128.109894 
	C166.350266,136.948883 166.386169,137.199097 157.110214,138.562119 
	C152.381317,139.256973 147.431915,139.402374 142.688858,138.861191 
	C131.153030,137.544922 123.811607,129.353287 123.036217,116.660774 
	C122.458168,107.198700 122.548950,97.676880 122.782097,88.192497 
	C122.890373,83.787788 121.540108,82.399673 117.120811,82.558426 
	C109.376312,82.836617 109.366966,82.576294 109.365807,74.723198 
	C109.365761,74.390060 109.365822,74.056915 109.365852,73.723778 
	C109.366760,64.983772 109.373108,64.688988 118.029060,64.875313 
	C124.587212,65.016487 122.190742,60.461720 122.684265,56.840508 
z"/>
</svg>